# xmcd
#
# Track frame offsets: 
#        150
#        15732
#        31407
#        49950
#        69150
#        85605
#        98430
#        113367
#        133037
#        148640
#        171372
#        190167
#        203955
#
# Disc length: 2895 seconds
#
# Revision: 2
# Processed by: cddbd v1.5.1PL2 Copyright (c) Steve Scherf et al.
# Submitted via: ExactAudioCopy v0.95b4
#
DISCID=a60b4d0d
DTITLE=Mama's Jasje - Het beste van Mama's Jasje
DYEAR=1996
DGENRE=Pop
TTITLE0=Zo ver weg
TTITLE1=Zonder verhaal
TTITLE2=Regenboog
TTITLE3=God in Frankrijk
TTITLE4=Teken van leven
TTITLE5=Madeleine
TTITLE6=Kon dit nu maar blijven
TTITLE7=Onzen bok is dood
TTITLE8=Alleen liefde
TTITLE9=Land van 1000 dromen
TTITLE10=Doe het licht maar uit
TTITLE11=Morgen
TTITLE12=Wunderbar
EXTD=
EXTT0=
EXTT1=
EXTT2=
EXTT3=
EXTT4=
EXTT5=
EXTT6=
EXTT7=
EXTT8=
EXTT9=
EXTT10=
EXTT11=
EXTT12=
PLAYORDER=
